<svg width="600" height="600" viewBox="0 0 600 600" xmlns="http://www.w3.org/2000/svg">
  <defs>
    <pattern id="grid" width="40" height="40" patternUnits="userSpaceOnUse">
      <path d="M 40 0 L 0 0 0 40" fill="none" stroke="#4338ca" stroke-width="0.5" opacity="0.1"/>
    </pattern>
    <filter id="glow" x="-50%" y="-50%" width="200%" height="200%">
      <feGaussianBlur stdDeviation="2" result="blur"/>
      <feComposite in="SourceGraphic" in2="blur" operator="over"/>
    </filter>
  </defs>
  <rect width="100%" height="100%" fill="#fafafa"/>
  <rect width="100%" height="100%" fill="url(#grid)"/>
  <g filter="url(#glow)">
    <circle cx="100" cy="100" r="4" fill="#4338ca" opacity="0.5"/>
    <circle cx="200" cy="150" r="4" fill="#4338ca" opacity="0.5"/>
    <circle cx="300" cy="100" r="4" fill="#4338ca" opacity="0.5"/>
    <circle cx="400" cy="150" r="4" fill="#4338ca" opacity="0.5"/>
    <circle cx="500" cy="100" r="4" fill="#4338ca" opacity="0.5"/>
    <circle cx="150" cy="200" r="4" fill="#4338ca" opacity="0.5"/>
    <circle cx="250" cy="250" r="4" fill="#4338ca" opacity="0.5"/>
    <circle cx="350" cy="200" r="4" fill="#4338ca" opacity="0.5"/>
    <circle cx="450" cy="250" r="4" fill="#4338ca" opacity="0.5"/>
    <circle cx="100" cy="300" r="4" fill="#4338ca" opacity="0.5"/>
    <circle cx="200" cy="350" r="4" fill="#4338ca" opacity="0.5"/>
    <circle cx="300" cy="300" r="4" fill="#4338ca" opacity="0.5"/>
    <circle cx="400" cy="350" r="4" fill="#4338ca" opacity="0.5"/>
    <circle cx="500" cy="300" r="4" fill="#4338ca" opacity="0.5"/>
    <circle cx="150" cy="400" r="4" fill="#4338ca" opacity="0.5"/>
    <circle cx="250" cy="450" r="4" fill="#4338ca" opacity="0.5"/>
    <circle cx="350" cy="400" r="4" fill="#4338ca" opacity="0.5"/>
    <circle cx="450" cy="450" r="4" fill="#4338ca" opacity="0.5"/>
    <circle cx="100" cy="500" r="4" fill="#4338ca" opacity="0.5"/>
    <circle cx="200" cy="550" r="4" fill="#4338ca" opacity="0.5"/>
    <circle cx="300" cy="500" r="4" fill="#4338ca" opacity="0.5"/>
    <circle cx="400" cy="550" r="4" fill="#4338ca" opacity="0.5"/>
    <circle cx="500" cy="500" r="4" fill="#4338ca" opacity="0.5"/>
    
    <line x1="100" y1="100" x2="200" y2="150" stroke="#4338ca" stroke-width="1" opacity="0.2"/>
    <line x1="200" y1="150" x2="300" y2="100" stroke="#4338ca" stroke-width="1" opacity="0.2"/>
    <line x1="300" y1="100" x2="400" y2="150" stroke="#4338ca" stroke-width="1" opacity="0.2"/>
    <line x1="400" y1="150" x2="500" y2="100" stroke="#4338ca" stroke-width="1" opacity="0.2"/>
    <line x1="100" y1="100" x2="150" y2="200" stroke="#4338ca" stroke-width="1" opacity="0.2"/>
    <line x1="200" y1="150" x2="250" y2="250" stroke="#4338ca" stroke-width="1" opacity="0.2"/>
    <line x1="300" y1="100" x2="350" y2="200" stroke="#4338ca" stroke-width="1" opacity="0.2"/>
    <line x1="400" y1="150" x2="450" y2="250" stroke="#4338ca" stroke-width="1" opacity="0.2"/>
    <line x1="150" y1="200" x2="100" y2="300" stroke="#4338ca" stroke-width="1" opacity="0.2"/>
    <line x1="250" y1="250" x2="200" y2="350" stroke="#4338ca" stroke-width="1" opacity="0.2"/>
    <line x1="350" y1="200" x2="300" y2="300" stroke="#4338ca" stroke-width="1" opacity="0.2"/>
    <line x1="450" y1="250" x2="400" y2="350" stroke="#4338ca" stroke-width="1" opacity="0.2"/>
    <line x1="100" y1="300" x2="150" y2="400" stroke="#4338ca" stroke-width="1" opacity="0.2"/>
    <line x1="200" y1="350" x2="250" y2="450" stroke="#4338ca" stroke-width="1" opacity="0.2"/>
    <line x1="300" y1="300" x2="350" y2="400" stroke="#4338ca" stroke-width="1" opacity="0.2"/>
    <line x1="400" y1="350" x2="450" y2="450" stroke="#4338ca" stroke-width="1" opacity="0.2"/>
    <line x1="150" y1="400" x2="100" y2="500" stroke="#4338ca" stroke-width="1" opacity="0.2"/>
    <line x1="250" y1="450" x2="200" y2="550" stroke="#4338ca" stroke-width="1" opacity="0.2"/>
    <line x1="350" y1="400" x2="300" y2="500" stroke="#4338ca" stroke-width="1" opacity="0.2"/>
    <line x1="450" y1="450" x2="400" y2="550" stroke="#4338ca" stroke-width="1" opacity="0.2"/>
  </g>
</svg>